<svg xmlns="http://www.w3.org/2000/svg" viewBox="0 0 378.4 177.48"><defs><style>.cls-1,.cls-3{fill:#0066b2;}.cls-2{fill:#231f20;}.cls-3{fill-rule:evenodd;}</style></defs><title>IGNOU</title><g id="Layer_2" data-name="Layer 2"><g id="Layer_1-2" data-name="Layer 1"><path class="cls-1" d="M185.71,13.56H173.4V2.13h12.31Zm0,52H173.4V19.05h12.31Z"/><path class="cls-1" d="M235.35,68.17A17.8,17.8,0,0,1,228.11,83a25.88,25.88,0,0,1-16,5,24.29,24.29,0,0,1-15.44-4.92q-7-5.53-7-15.06h11.4a8.49,8.49,0,0,0,3.13,7,10.77,10.77,0,0,0,7.05,2.27,12.76,12.76,0,0,0,8-2.6A9.32,9.32,0,0,0,223.05,67V59.8a9.56,9.56,0,0,1-4.79,4.89,17.43,17.43,0,0,1-7.91,1.74,20.42,20.42,0,0,1-12.54-4,18.07,18.07,0,0,1-7.22-12.74,79.18,79.18,0,0,1-.78-9.08A27.09,27.09,0,0,1,192.42,29a19,19,0,0,1,7.35-8.29A19.18,19.18,0,0,1,210,17.66a14,14,0,0,1,12.79,7.15.22.22,0,0,1,.17.09V19.05h12.39Zm-12-24.77q0-15-10.34-15T202.55,42.7q0,6.72,3.3,10.64A8.84,8.84,0,0,0,213,56.83a9.12,9.12,0,0,0,7.13-3.4Q223.31,49.68,223.31,43.4Z"/><path class="cls-1" d="M281.86,65.56h-12.3V37.46q0-4.87-1.49-6.89-1.83-2.36-6.54-2.35Q252,28.22,252,39V65.56H239.71V19.05H251.5v4.36a14.07,14.07,0,0,0,.08,2.53c0-.05,0-.08.09-.08a15.07,15.07,0,0,1,6.24-6,18.24,18.24,0,0,1,8.59-2.13q9.25,0,13.44,7.23a17.18,17.18,0,0,1,1.92,8.38Z"/><path class="cls-1" d="M332.65,42.35q0,11.09-6.38,17.76T309,66.78q-11.08,0-17.5-6.76t-6.41-17.67q0-11,6.37-17.75T309,17.83q11.16,0,17.53,6.89,6.11,6.74,6.12,17.63m-12.48,0q0-14.13-11.17-14.14T297.75,42.35q0,14.13,11.25,14.14T320.17,42.35Z"/><path class="cls-1" d="M378.36,65.56h-11.6v-4.1a12.46,12.46,0,0,0-.09-2.44s0,.08-.09.08Q362,67,352.45,67a15,15,0,0,1-10.91-4.28q-5-4.71-5-13V19.05h12.3v28.8q0,8.64,7.85,8.63a8.62,8.62,0,0,0,7.07-3,11.55,11.55,0,0,0,2.45-7.59V19.05h12.12Z"/><path class="cls-2" d="M191.67,95.31a3.92,3.92,0,0,1,0,.63,1.4,1.4,0,0,1-.12.42.63.63,0,0,1-.21.24.5.5,0,0,1-.27.08h-6.89V117.9a.43.43,0,0,1-.08.27.45.45,0,0,1-.26.18,3.21,3.21,0,0,1-.5.11,6.11,6.11,0,0,1-1.56,0,3.11,3.11,0,0,1-.51-.11.51.51,0,0,1-.27-.18.5.5,0,0,1-.07-.27V96.68H174a.57.57,0,0,1-.28-.08.61.61,0,0,1-.2-.24,1.81,1.81,0,0,1-.11-.42,4,4,0,0,1,0-1.26,1.87,1.87,0,0,1,.11-.44.58.58,0,0,1,.2-.25.57.57,0,0,1,.28-.08h17a.5.5,0,0,1,.27.08.6.6,0,0,1,.21.25,1.46,1.46,0,0,1,.12.44,3.92,3.92,0,0,1,0,.63"/><path class="cls-2" d="M211.87,117.9a.5.5,0,0,1-.08.27.49.49,0,0,1-.26.18,3.21,3.21,0,0,1-.5.11,5.3,5.3,0,0,1-.77.05,5.5,5.5,0,0,1-.79-.05,3,3,0,0,1-.49-.11.64.64,0,0,1-.27-.18.5.5,0,0,1-.07-.27V107H197.49V117.9a.5.5,0,0,1-.07.27.6.6,0,0,1-.26.18,3.37,3.37,0,0,1-.51.11,5.46,5.46,0,0,1-.78.05,5.67,5.67,0,0,1-.78-.05,2.89,2.89,0,0,1-.51-.11.6.6,0,0,1-.26-.18.43.43,0,0,1-.08-.27V94.41a.41.41,0,0,1,.08-.27.52.52,0,0,1,.26-.18,2.89,2.89,0,0,1,.51-.11,5.67,5.67,0,0,1,.78,0,5.46,5.46,0,0,1,.78,0,3.37,3.37,0,0,1,.51.11.52.52,0,0,1,.26.18.47.47,0,0,1,.07.27v9.79h11.15V94.41a.47.47,0,0,1,.07-.27A.56.56,0,0,1,209,94a3,3,0,0,1,.49-.11,5.5,5.5,0,0,1,.79,0,5.3,5.3,0,0,1,.77,0,3.21,3.21,0,0,1,.5.11.45.45,0,0,1,.26.18.48.48,0,0,1,.08.27Z"/><path class="cls-2" d="M231,117.05a3.34,3.34,0,0,1,0,.59,1,1,0,0,1-.13.43.55.55,0,0,1-.22.25.5.5,0,0,1-.27.08H218.63a1.32,1.32,0,0,1-.83-.3,1.21,1.21,0,0,1-.39-1V95.24a1.21,1.21,0,0,1,.39-1,1.31,1.31,0,0,1,.83-.29h11.6a.51.51,0,0,1,.28.07.47.47,0,0,1,.2.25,1.77,1.77,0,0,1,.12.42,2.87,2.87,0,0,1,0,.63,2.69,2.69,0,0,1,0,.6,1.77,1.77,0,0,1-.12.42.5.5,0,0,1-.2.23.51.51,0,0,1-.28.08h-9.56v7.68h8.21a.44.44,0,0,1,.27.09.67.67,0,0,1,.21.23,1.24,1.24,0,0,1,.12.42,3.72,3.72,0,0,1,0,.62,3.34,3.34,0,0,1,0,.59,1.26,1.26,0,0,1-.12.4.64.64,0,0,1-.21.22.6.6,0,0,1-.27.06h-8.21v8.76h9.7a.5.5,0,0,1,.27.08.55.55,0,0,1,.22.23,1,1,0,0,1,.13.42,3.77,3.77,0,0,1,0,.63"/><path class="cls-2" d="M258.2,101.09a8.66,8.66,0,0,1-.61,3.3,6.88,6.88,0,0,1-1.73,2.52,7.68,7.68,0,0,1-2.76,1.61,12,12,0,0,1-3.91.57h-2.78v8.81a.44.44,0,0,1-.09.27.6.6,0,0,1-.26.18,3.32,3.32,0,0,1-.49.11,5.61,5.61,0,0,1-.79.05,5.35,5.35,0,0,1-.78-.05,3,3,0,0,1-.5-.11.58.58,0,0,1-.27-.18.5.5,0,0,1-.08-.27V95.31a1.3,1.3,0,0,1,.4-1.07,1.35,1.35,0,0,1,.89-.32h5.24a15.17,15.17,0,0,1,1.53.06,14.29,14.29,0,0,1,1.71.28,7.15,7.15,0,0,1,2,.82,6.4,6.4,0,0,1,1.75,1.46,6.28,6.28,0,0,1,1.11,2,7.76,7.76,0,0,1,.39,2.53m-3.43.26a5.11,5.11,0,0,0-.56-2.5,3.85,3.85,0,0,0-1.38-1.49,4.69,4.69,0,0,0-1.7-.63,12.81,12.81,0,0,0-1.72-.13h-3v9.82h2.93a6.67,6.67,0,0,0,2.45-.38,4.54,4.54,0,0,0,1.64-1.05,4.47,4.47,0,0,0,1-1.6A5.9,5.9,0,0,0,254.77,101.35Z"/><path class="cls-2" d="M275.82,117.05a4.91,4.91,0,0,1,0,.59,1.14,1.14,0,0,1-.14.43.6.6,0,0,1-.21.25.57.57,0,0,1-.28.08H263.41a1.3,1.3,0,0,1-.82-.3,1.21,1.21,0,0,1-.39-1V95.24a1.21,1.21,0,0,1,.39-1,1.29,1.29,0,0,1,.82-.29H275a.5.5,0,0,1,.27.07.52.52,0,0,1,.2.25,2.35,2.35,0,0,1,.13.42,3.77,3.77,0,0,1,0,.63,3.54,3.54,0,0,1,0,.6,2.35,2.35,0,0,1-.13.42.57.57,0,0,1-.2.23.5.5,0,0,1-.27.08h-9.58v7.68h8.22a.44.44,0,0,1,.27.09.67.67,0,0,1,.21.23,1.24,1.24,0,0,1,.12.42,3.72,3.72,0,0,1,0,.62,3.34,3.34,0,0,1,0,.59,1.26,1.26,0,0,1-.12.4.64.64,0,0,1-.21.22.6.6,0,0,1-.27.06h-8.22v8.76h9.71a.57.57,0,0,1,.28.08.59.59,0,0,1,.21.23,1.15,1.15,0,0,1,.14.42,5.53,5.53,0,0,1,0,.63"/><path class="cls-2" d="M300.05,105.87a18.79,18.79,0,0,1-.7,5.35,11.13,11.13,0,0,1-2.09,4.07,9.13,9.13,0,0,1-3.49,2.57,12.35,12.35,0,0,1-4.9.9,12.52,12.52,0,0,1-4.77-.83,8.29,8.29,0,0,1-3.33-2.39,10.23,10.23,0,0,1-2-3.9,20.07,20.07,0,0,1-.64-5.35,18.4,18.4,0,0,1,.7-5.26,10.7,10.7,0,0,1,2.1-4,9.06,9.06,0,0,1,3.49-2.55,13.79,13.79,0,0,1,9.61-.09,8.35,8.35,0,0,1,3.34,2.37,10,10,0,0,1,2,3.86,19.54,19.54,0,0,1,.65,5.27m-3.44.23a18.83,18.83,0,0,0-.37-3.87A8.74,8.74,0,0,0,295,99.12a5.9,5.9,0,0,0-2.29-2.05,7.76,7.76,0,0,0-3.56-.73,7.19,7.19,0,0,0-3.54.79,6.73,6.73,0,0,0-2.34,2.12,8.58,8.58,0,0,0-1.28,3.09,17.25,17.25,0,0,0-.39,3.72,20.41,20.41,0,0,0,.36,4,9,9,0,0,0,1.2,3.13,5.82,5.82,0,0,0,2.29,2,7.73,7.73,0,0,0,3.58.73,7.37,7.37,0,0,0,3.58-.8A6.57,6.57,0,0,0,295,113a9,9,0,0,0,1.26-3.13A18.15,18.15,0,0,0,296.61,106.1Z"/><path class="cls-2" d="M319.28,101.09a8.66,8.66,0,0,1-.61,3.3,7,7,0,0,1-1.73,2.52,7.68,7.68,0,0,1-2.76,1.61,12,12,0,0,1-3.91.57h-2.78v8.81a.44.44,0,0,1-.09.27.66.66,0,0,1-.26.18,3,3,0,0,1-.5.11,6.11,6.11,0,0,1-1.56,0,3.37,3.37,0,0,1-.51-.11.54.54,0,0,1-.26-.18.5.5,0,0,1-.08-.27V95.31a1.27,1.27,0,0,1,.4-1.07,1.35,1.35,0,0,1,.89-.32h5.24a15,15,0,0,1,1.52.06,14.1,14.1,0,0,1,1.72.28,7.15,7.15,0,0,1,2,.82,6.55,6.55,0,0,1,1.75,1.46,6.07,6.07,0,0,1,1.1,2,7.76,7.76,0,0,1,.4,2.53m-3.43.26a5.11,5.11,0,0,0-.56-2.5,3.92,3.92,0,0,0-1.38-1.49,4.69,4.69,0,0,0-1.7-.63,12.81,12.81,0,0,0-1.72-.13h-3v9.82h2.93a6.67,6.67,0,0,0,2.45-.38,4.62,4.62,0,0,0,1.64-1.05,4.47,4.47,0,0,0,1-1.6A5.9,5.9,0,0,0,315.85,101.35Z"/><path class="cls-2" d="M336,117a5.53,5.53,0,0,1,0,.63,1.75,1.75,0,0,1-.13.44.67.67,0,0,1-.2.26.51.51,0,0,1-.3.09H324.49a1.32,1.32,0,0,1-.82-.3,1.21,1.21,0,0,1-.39-1V94.41a.41.41,0,0,1,.08-.27.48.48,0,0,1,.26-.18,3.37,3.37,0,0,1,.51-.11,5.78,5.78,0,0,1,.78,0,5.56,5.56,0,0,1,.78,0,3.21,3.21,0,0,1,.5.11.51.51,0,0,1,.27.18.47.47,0,0,1,.07.27v21.16h8.78a.51.51,0,0,1,.3.09.63.63,0,0,1,.2.25,1.3,1.3,0,0,1,.13.42,6,6,0,0,1,0,.65"/><path class="cls-2" d="M352.22,117.05a4.91,4.91,0,0,1,0,.59,1.14,1.14,0,0,1-.14.43.61.61,0,0,1-.22.25.5.5,0,0,1-.27.08H339.81a1.3,1.3,0,0,1-.82-.3,1.21,1.21,0,0,1-.39-1V95.24a1.21,1.21,0,0,1,.39-1,1.29,1.29,0,0,1,.82-.29h11.62a.55.55,0,0,1,.28.07.5.5,0,0,1,.19.25,2.35,2.35,0,0,1,.13.42,5.27,5.27,0,0,1,0,.63,5,5,0,0,1,0,.6,2.35,2.35,0,0,1-.13.42.55.55,0,0,1-.19.23.57.57,0,0,1-.28.08h-9.58v7.68h8.22a.46.46,0,0,1,.27.09.67.67,0,0,1,.21.23,1.24,1.24,0,0,1,.12.42,3.72,3.72,0,0,1,0,.62,3.34,3.34,0,0,1,0,.59,1.26,1.26,0,0,1-.12.4.64.64,0,0,1-.21.22.63.63,0,0,1-.27.06h-8.22v8.76h9.71a.5.5,0,0,1,.27.08.61.61,0,0,1,.22.23,1.15,1.15,0,0,1,.14.42,5.53,5.53,0,0,1,0,.63"/><path class="cls-2" d="M360.32,93.46c0,.39,0,.75-.06,1.07a5.68,5.68,0,0,1-.19.93,4.85,4.85,0,0,1-.35.86,8.82,8.82,0,0,1-.54.89l-2.59,3.89a2.62,2.62,0,0,1-.22.25,1.09,1.09,0,0,1-.3.18,1.65,1.65,0,0,1-.41.09,5.21,5.21,0,0,1-.6,0,4,4,0,0,1-.54,0,.63.63,0,0,1-.31-.09.22.22,0,0,1-.11-.18.6.6,0,0,1,.07-.29l2.51-5.2v-2.4a2.48,2.48,0,0,1,.11-.8.9.9,0,0,1,.33-.47,1.22,1.22,0,0,1,.57-.22,5.63,5.63,0,0,1,1.64,0,1.18,1.18,0,0,1,.56.22,1,1,0,0,1,.32.47,2.48,2.48,0,0,1,.11.8"/><path class="cls-2" d="M378.4,111.53a7,7,0,0,1-.64,3.06,6.45,6.45,0,0,1-1.75,2.28,7.66,7.66,0,0,1-2.65,1.41,10.9,10.9,0,0,1-3.29.48,12.62,12.62,0,0,1-2.28-.21,14.26,14.26,0,0,1-1.87-.51,10.82,10.82,0,0,1-1.38-.63,4.25,4.25,0,0,1-.78-.55,1.29,1.29,0,0,1-.31-.58,3.28,3.28,0,0,1-.11-.93,4.41,4.41,0,0,1,0-.69,1.65,1.65,0,0,1,.11-.45.5.5,0,0,1,.19-.23.48.48,0,0,1,.26-.07,1.57,1.57,0,0,1,.75.32,10.76,10.76,0,0,0,1.24.7,11.94,11.94,0,0,0,1.82.71,8.44,8.44,0,0,0,2.47.33,6.23,6.23,0,0,0,1.94-.28,4.51,4.51,0,0,0,1.52-.81,3.27,3.27,0,0,0,1-1.27,4.1,4.1,0,0,0,.35-1.72,3.18,3.18,0,0,0-.48-1.78,4.66,4.66,0,0,0-1.25-1.3,11.31,11.31,0,0,0-1.76-1l-2-.94c-.69-.33-1.37-.68-2-1.07a8.26,8.26,0,0,1-1.76-1.38,6.41,6.41,0,0,1-1.26-1.87,6.22,6.22,0,0,1-.49-2.56,6.36,6.36,0,0,1,.57-2.74,5.58,5.58,0,0,1,1.54-2A7.13,7.13,0,0,1,368.42,94a9.72,9.72,0,0,1,3-.43,10.18,10.18,0,0,1,1.64.14,13.51,13.51,0,0,1,1.55.38,8.63,8.63,0,0,1,1.29.54,3.17,3.17,0,0,1,.75.47,1.56,1.56,0,0,1,.24.28.85.85,0,0,1,.09.27A1.78,1.78,0,0,1,377,96a5,5,0,0,1,0,.59,5.53,5.53,0,0,1,0,.61,1.7,1.7,0,0,1-.09.44.58.58,0,0,1-.15.27.41.41,0,0,1-.24.08,1.55,1.55,0,0,1-.65-.26c-.3-.18-.67-.38-1.09-.61a11.65,11.65,0,0,0-1.53-.6,6.68,6.68,0,0,0-2-.27,5.27,5.27,0,0,0-1.77.27,3.89,3.89,0,0,0-1.25.73,2.9,2.9,0,0,0-.74,1.08,3.68,3.68,0,0,0-.24,1.32,3.21,3.21,0,0,0,.47,1.76,4.88,4.88,0,0,0,1.26,1.31,10.53,10.53,0,0,0,1.79,1l2,1c.69.32,1.37.68,2,1.06a8.75,8.75,0,0,1,1.79,1.37,6.21,6.21,0,0,1,1.27,1.85,6.14,6.14,0,0,1,.48,2.53"/><path class="cls-2" d="M198.34,147.92a12.85,12.85,0,0,1-.74,4.49,8.7,8.7,0,0,1-2.18,3.36,9.3,9.3,0,0,1-3.54,2.09,15,15,0,0,1-4.85.72,15.41,15.41,0,0,1-4.63-.65,8.7,8.7,0,0,1-3.46-2,8.55,8.55,0,0,1-2.16-3.26,12.73,12.73,0,0,1-.75-4.57V131.54a.64.64,0,0,1,.12-.38.89.89,0,0,1,.46-.28,5.5,5.5,0,0,1,.85-.17,12.32,12.32,0,0,1,1.35-.06,12,12,0,0,1,1.33.06,5,5,0,0,1,.85.17,1,1,0,0,1,.46.28.65.65,0,0,1,.13.38v16.13a8.73,8.73,0,0,0,.4,2.81,5.2,5.2,0,0,0,1.15,2,4.74,4.74,0,0,0,1.8,1.16,6.36,6.36,0,0,0,2.33.4,6.6,6.6,0,0,0,2.34-.4,4.85,4.85,0,0,0,1.76-1.17,5.42,5.42,0,0,0,1.1-1.91,7.78,7.78,0,0,0,.39-2.56V131.54a.58.58,0,0,1,.13-.38.86.86,0,0,1,.44-.28,5.19,5.19,0,0,1,.86-.17,12.25,12.25,0,0,1,1.34-.06,11.66,11.66,0,0,1,1.31.06,5.11,5.11,0,0,1,.84.17.82.82,0,0,1,.44.28.58.58,0,0,1,.13.38Z"/><path class="cls-2" d="M225.71,156.15a2,2,0,0,1-.17.86,1.64,1.64,0,0,1-.45.63,1.62,1.62,0,0,1-.68.38,3,3,0,0,1-.79.11h-2.36A4.45,4.45,0,0,1,220,158a2.45,2.45,0,0,1-1-.53,4.15,4.15,0,0,1-.87-1.06,17.25,17.25,0,0,1-1-1.72l-6.79-12.77c-.4-.76-.8-1.58-1.21-2.46s-.77-1.73-1.09-2.56h0c.06,1,.1,2,.13,3s0,2,0,3.11v14.29a.58.58,0,0,1-.13.38.76.76,0,0,1-.39.28,3,3,0,0,1-.78.18,8.38,8.38,0,0,1-1.24.07,8.27,8.27,0,0,1-1.22-.07,2.73,2.73,0,0,1-.76-.18.76.76,0,0,1-.39-.28.7.7,0,0,1-.1-.38V132.76a1.84,1.84,0,0,1,.58-1.49,2.14,2.14,0,0,1,1.43-.49h3a5.86,5.86,0,0,1,1.36.13,2.8,2.8,0,0,1,1,.46,3.45,3.45,0,0,1,.82.87,12.82,12.82,0,0,1,.78,1.39l5.31,10,.92,1.78c.31.59.6,1.17.88,1.75s.56,1.16.82,1.73.53,1.13.79,1.68h0c0-1-.06-2-.09-3.08s0-2.09,0-3.05V131.6a.64.64,0,0,1,.12-.38,1.16,1.16,0,0,1,.43-.3,2.68,2.68,0,0,1,.78-.17,10.51,10.51,0,0,1,1.25-.06,10,10,0,0,1,1.2.06,2.45,2.45,0,0,1,.75.17,1,1,0,0,1,.37.3.7.7,0,0,1,.1.38Z"/><path class="cls-2" d="M236.16,157.33a.59.59,0,0,1-.14.38,1,1,0,0,1-.45.28,4.45,4.45,0,0,1-.85.16,10,10,0,0,1-1.35.07,10.13,10.13,0,0,1-1.34-.07,4.42,4.42,0,0,1-.86-.16,1.09,1.09,0,0,1-.45-.28.59.59,0,0,1-.14-.38V131.54a.59.59,0,0,1,.14-.38,1,1,0,0,1,.46-.28,5.66,5.66,0,0,1,.86-.17,12.18,12.18,0,0,1,1.33-.06,12.32,12.32,0,0,1,1.35.06,5.26,5.26,0,0,1,.85.17.89.89,0,0,1,.45.28.59.59,0,0,1,.14.38Z"/><path class="cls-2" d="M254.62,157.12a1.84,1.84,0,0,1-.27.58,1.06,1.06,0,0,1-.55.34,4.73,4.73,0,0,1-1,.15c-.44,0-1,0-1.72,0h-1.44c-.4,0-.74,0-1-.06a4.25,4.25,0,0,1-.68-.12,2,2,0,0,1-.44-.21.79.79,0,0,1-.27-.31,2.43,2.43,0,0,1-.19-.45l-8.12-24.21a6.12,6.12,0,0,1-.31-1.21.68.68,0,0,1,.21-.66,1.57,1.57,0,0,1,.9-.27q.63-.06,1.77-.06c.65,0,1.15,0,1.52,0a3.55,3.55,0,0,1,.85.15.66.66,0,0,1,.4.32,2.87,2.87,0,0,1,.23.52l6.65,21.07h0l6.52-21a2.55,2.55,0,0,1,.21-.58.84.84,0,0,1,.44-.35,2.77,2.77,0,0,1,.87-.17c.38,0,.9,0,1.56,0a14.49,14.49,0,0,1,1.51.06,1.22,1.22,0,0,1,.74.3.87.87,0,0,1,.13.7,8,8,0,0,1-.33,1.18Z"/><path class="cls-2" d="M281.7,155.92a9.49,9.49,0,0,1-.05,1,2.53,2.53,0,0,1-.16.67.8.8,0,0,1-.27.36.52.52,0,0,1-.34.12H267.15a1.76,1.76,0,0,1-1.17-.41,1.7,1.7,0,0,1-.47-1.34V132.53a1.54,1.54,0,0,1,1.64-1.75h13.64a.57.57,0,0,1,.34.1.89.89,0,0,1,.25.37,2.62,2.62,0,0,1,.16.68,7.37,7.37,0,0,1,.06,1,7,7,0,0,1-.06,1,2.44,2.44,0,0,1-.16.67.83.83,0,0,1-.25.37.51.51,0,0,1-.34.11H271v6.67h8.26a.54.54,0,0,1,.34.12,1,1,0,0,1,.27.36,2.65,2.65,0,0,1,.16.66,9,9,0,0,1,.05,1,9.21,9.21,0,0,1-.05,1,2.58,2.58,0,0,1-.16.64.78.78,0,0,1-.27.35.6.6,0,0,1-.34.11H271v7.71h9.84a.51.51,0,0,1,.34.11.83.83,0,0,1,.27.37,2.45,2.45,0,0,1,.16.66,9.7,9.7,0,0,1,.05,1"/><path class="cls-2" d="M305.78,157.37a1,1,0,0,1-.08.4.81.81,0,0,1-.4.26,4.27,4.27,0,0,1-.93.15c-.41,0-1,0-1.67,0s-1.06,0-1.41,0a3.13,3.13,0,0,1-.84-.16.91.91,0,0,1-.43-.3,1.57,1.57,0,0,1-.21-.43l-2.45-6.1c-.3-.69-.59-1.3-.87-1.84a5.78,5.78,0,0,0-.94-1.34,3.32,3.32,0,0,0-1.19-.81,4,4,0,0,0-1.56-.27h-1.73v10.4a.65.65,0,0,1-.13.38,1.06,1.06,0,0,1-.46.28,5.41,5.41,0,0,1-.85.16,12,12,0,0,1-1.35.07,12.2,12.2,0,0,1-1.34-.07,5,5,0,0,1-.85-.16,1,1,0,0,1-.45-.28.64.64,0,0,1-.12-.38v-24.8a1.67,1.67,0,0,1,.47-1.34,1.71,1.71,0,0,1,1.17-.41h7.08c.71,0,1.3,0,1.77,0s.89.06,1.27.1a11.36,11.36,0,0,1,3,.81,7.23,7.23,0,0,1,2.24,1.48,6.23,6.23,0,0,1,1.4,2.18,7.8,7.8,0,0,1,.49,2.88,8.16,8.16,0,0,1-.36,2.5,6.18,6.18,0,0,1-1,2,7,7,0,0,1-1.67,1.54,9.6,9.6,0,0,1-2.26,1.06,5.94,5.94,0,0,1,1.15.71,5.74,5.74,0,0,1,1,1,9.14,9.14,0,0,1,.9,1.38,15.84,15.84,0,0,1,.82,1.74l2.3,5.38c.21.53.36.93.43,1.17a2.25,2.25,0,0,1,.1.58m-7.15-18.53a4,4,0,0,0-.62-2.28,3.31,3.31,0,0,0-2-1.31c-.28-.07-.61-.12-1-.17a14.46,14.46,0,0,0-1.49-.06h-2.49v7.75h2.83a6.69,6.69,0,0,0,2.06-.29,4,4,0,0,0,1.48-.8,3.3,3.3,0,0,0,.89-1.24A4.07,4.07,0,0,0,298.63,138.84Z"/><path class="cls-2" d="M324.54,149.9a8.35,8.35,0,0,1-.8,3.78,7.8,7.8,0,0,1-2.17,2.71,9.56,9.56,0,0,1-3.21,1.64,13.82,13.82,0,0,1-3.93.55,14.47,14.47,0,0,1-2.63-.23,17.33,17.33,0,0,1-2.14-.56,9.21,9.21,0,0,1-1.55-.69,4.61,4.61,0,0,1-.9-.64,1.59,1.59,0,0,1-.39-.79,7,7,0,0,1-.11-1.49c0-.43,0-.8,0-1.09a2.91,2.91,0,0,1,.13-.72.79.79,0,0,1,.26-.39.6.6,0,0,1,.37-.11,1.69,1.69,0,0,1,.83.34,15.14,15.14,0,0,0,1.38.78,12.83,12.83,0,0,0,2,.76,9.28,9.28,0,0,0,2.71.35,6.37,6.37,0,0,0,1.82-.24,4.13,4.13,0,0,0,1.36-.68,2.94,2.94,0,0,0,.85-1.1,3.5,3.5,0,0,0,.3-1.46,2.58,2.58,0,0,0-.5-1.59,5,5,0,0,0-1.33-1.19,13.69,13.69,0,0,0-1.84-1l-2.14-1a19.91,19.91,0,0,1-2.13-1.15,8.28,8.28,0,0,1-1.84-1.54,7.71,7.71,0,0,1-1.33-2.12,7.84,7.84,0,0,1-.5-2.93,7.73,7.73,0,0,1,.73-3.46,7.12,7.12,0,0,1,2-2.47,8.3,8.3,0,0,1,2.91-1.46,13,13,0,0,1,5.51-.34,13.39,13.39,0,0,1,1.81.4,10.72,10.72,0,0,1,1.5.57,3.24,3.24,0,0,1,.86.53,1.33,1.33,0,0,1,.29.36,2,2,0,0,1,.13.39c0,.16.05.37.07.61s0,.55,0,.92,0,.75,0,1a2.93,2.93,0,0,1-.11.7.76.76,0,0,1-.21.4.54.54,0,0,1-.37.13,1.78,1.78,0,0,1-.74-.3,13.8,13.8,0,0,0-1.24-.64,9.73,9.73,0,0,0-1.72-.63,7.1,7.1,0,0,0-2.12-.29,5,5,0,0,0-1.59.22,3.25,3.25,0,0,0-1.12.61,2.32,2.32,0,0,0-.68.94,3,3,0,0,0-.22,1.16,2.53,2.53,0,0,0,.49,1.57,4.83,4.83,0,0,0,1.33,1.19,15.11,15.11,0,0,0,1.89,1c.71.3,1.42.62,2.15,1a20.19,20.19,0,0,1,2.15,1.15,8.55,8.55,0,0,1,1.89,1.54,7,7,0,0,1,1.83,5"/><path class="cls-2" d="M333.28,157.33a.59.59,0,0,1-.14.38,1,1,0,0,1-.45.28,4.45,4.45,0,0,1-.85.16,10,10,0,0,1-1.35.07,10.13,10.13,0,0,1-1.34-.07,4.3,4.3,0,0,1-.85-.16,1.06,1.06,0,0,1-.46-.28.58.58,0,0,1-.13-.38V131.54a.58.58,0,0,1,.13-.38,1,1,0,0,1,.47-.28,5.19,5.19,0,0,1,.86-.17,11.85,11.85,0,0,1,1.32-.06,12.32,12.32,0,0,1,1.35.06,5.26,5.26,0,0,1,.85.17.89.89,0,0,1,.45.28.59.59,0,0,1,.14.38Z"/><path class="cls-2" d="M356.32,133.06a10.2,10.2,0,0,1-.05,1,3.17,3.17,0,0,1-.16.7,1,1,0,0,1-.26.39.57.57,0,0,1-.35.12h-6.84v22a.59.59,0,0,1-.14.38,1,1,0,0,1-.45.28,4.42,4.42,0,0,1-.86.16,9.87,9.87,0,0,1-1.33.07,10,10,0,0,1-1.34-.07,4.28,4.28,0,0,1-.86-.16,1.06,1.06,0,0,1-.46-.28.58.58,0,0,1-.13-.38v-22h-6.84a.54.54,0,0,1-.36-.12,1,1,0,0,1-.26-.39,3.23,3.23,0,0,1-.15-.7,8,8,0,0,1-.05-1,8.42,8.42,0,0,1,.05-1.08,3.21,3.21,0,0,1,.15-.71.94.94,0,0,1,.26-.38.59.59,0,0,1,.36-.11H355.5a.63.63,0,0,1,.35.11.94.94,0,0,1,.26.38,3.14,3.14,0,0,1,.16.71,10.75,10.75,0,0,1,.05,1.08"/><path class="cls-2" d="M369.51,147.72v9.61a.54.54,0,0,1-.14.38,1,1,0,0,1-.45.27,4.27,4.27,0,0,1-.85.18,15.22,15.22,0,0,1-2.7,0,4.43,4.43,0,0,1-.85-.18.87.87,0,0,1-.45-.27.58.58,0,0,1-.13-.38v-9.61l-7.47-14.87a6.76,6.76,0,0,1-.52-1.22.58.58,0,0,1,.13-.65,1.55,1.55,0,0,1,.89-.28c.44,0,1,0,1.82,0s1.16,0,1.55,0a3.75,3.75,0,0,1,.92.16,1.16,1.16,0,0,1,.5.31,2.51,2.51,0,0,1,.3.48l3,6.72q.45,1,.87,2c.3.72.59,1.47.88,2.26h0c.27-.76.55-1.5.83-2.22s.55-1.39.82-2l3-6.67a1.7,1.7,0,0,1,.26-.54,1.27,1.27,0,0,1,.48-.33,3.25,3.25,0,0,1,.86-.17c.37,0,.85,0,1.46,0,.8,0,1.43,0,1.87,0a1.59,1.59,0,0,1,.91.28.61.61,0,0,1,.11.66,7.28,7.28,0,0,1-.5,1.21Z"/><rect class="cls-2" x="161.86" width="1.76" height="177.48"/><path class="cls-1" d="M127.83,48a60.05,60.05,0,0,0-44.42-28.5V30.68a49.62,49.62,0,0,1,42.31,48.83,47.41,47.41,0,0,1-4.18,19.61,50.19,50.19,0,0,1-18.8,21.52,51.11,51.11,0,0,1-27.44,8.15,48.15,48.15,0,0,1-22-5.34A49.83,49.83,0,0,1,34.83,107a49.18,49.18,0,0,1-8.28-23.27c-.12-1.36-.17-2.72-.17-4.08a49.3,49.3,0,0,1,42.13-48.9V19.56A60.61,60.61,0,0,0,15.3,79.64c0,1.67.06,3.34.21,5a60.14,60.14,0,0,0,10.13,28.54,60.83,60.83,0,0,0,22.6,20.11,59,59,0,0,0,27.05,6.57h0a61.47,61.47,0,0,0,23-4.53A62.83,62.83,0,0,0,125.68,114,58.44,58.44,0,0,0,136.8,79.51a60.26,60.26,0,0,0-9-31.5"/><path class="cls-3" d="M68.49,52.78c-5,.76-9.74,4-9.71,10.17S65,72.26,71.23,72.29V63.05H81V81.72H71.23c-9.36,0-20.85-6.32-21.1-18.77-.21-10.48,9-18.4,18.36-19.16Z"/><path class="cls-3" d="M68.54,119.2v5.32a39.84,39.84,0,0,1-3.7-2c-1-.64-2.65-1.66-3.09-2.68a12.14,12.14,0,0,1-.39-3.28c-.06-.68-1-1.18-1.65-1.8-2.18-2.19-5-4.5-6.63-7.07-1.15-1.77-3-4-3-8.34,0-7.74,4.52-10.85,8.18-11.51,6.22-1.09,10.16,7.19,10.24,10.91v9.71c4.87,1.73,15.16,3.51,22.94-5.19,3.85-4.3,8.57-17.75-8.06-27.92,0-3.82,0-12.32,0-12.32C111.36,79,106.56,100,102,106.88c-10.45,15.65-28,13.85-33.42,12.32"/><path class="cls-3" d="M75.45,19.08c2.11,0,3.78.06,5.61.18V49.79l-9.87,2V19.29c1.64-.13,3-.2,4.26-.21"/><path class="cls-1" d="M152.06,19.07h-11s.11,52.41,0,65.51a60.72,60.72,0,0,1-7.05,28.8,58.79,58.79,0,0,1-12,15.37,74,74,0,0,1-35,17.63,94.44,94.44,0,0,1-10.92,1.07,77,77,0,0,1-21.63-3.72,70.86,70.86,0,0,1-16.11-7.49,61.06,61.06,0,0,1-10.66-8.52,55.72,55.72,0,0,1-11.92-17.94A67.68,67.68,0,0,1,11,84.58c0-2.5,0-65.51,0-65.51H0S0,82,0,84.58c.19,13.15,3.07,24.55,7.84,34a66.59,66.59,0,0,0,13.47,18.16A76.66,76.66,0,0,0,48,153.1a87.3,87.3,0,0,0,27.86,5.32,113.82,113.82,0,0,0,11.78-1A85.34,85.34,0,0,0,124.46,141a70.5,70.5,0,0,0,27.6-56.45c0-13.75,0-65.51,0-65.51"/></g></g></svg>